<svg xmlns="http://www.w3.org/2000/svg" viewBox="20 179.4642214533024 535.003435921155 216.0715570933952"> <g transform="rotate(0 128.0547912607067 287.5)"><svg xmlns="http://www.w3.org/2000/svg" xmlns:xlink="http://www.w3.org/1999/xlink" version="1.1" id="Layer_1" x="18" y="200" viewBox="130.88900756835938 130.89500427246094 1178.2230224609375 1178.2073974609375" enable-background="new 0 0 1440 1440" xml:space="preserve" height="130" width="900" preserveAspectRatio="xMinYMin" style="overflow: visible;"><path fill-rule="evenodd" clip-rule="evenodd" d="M1149.954,921.014H721.966h-40.625v-0.016l-91.911-0.041l190.605-330.14h396.606  h109.482h8.933c8.301,37.072,13.107,75.463,14.056,114.808h-1.863h-112.991H846.318l-58.069,100.581h398.431h64.835h51.516  c-18.783,128.235-78.864,243.057-166.319,330.512c-199.443,199.443-499.804,221.925-722.445,87.632l57.616-99.792  c184.085,112.912,426.095,88.556,583.66-69.009C1094.324,1016.768,1126.417,971.294,1149.954,921.014L1149.954,921.014z   M370.357,1195.066l58.155-100.73c-15.417-12.025-30.07-24.98-43.877-38.786c-34.488-34.491-63.682-74.27-86.281-118.014  l-2.186-4.288c-32.283-64.086-50.472-136.493-50.472-213.152c0-131.007,53.097-249.609,138.939-335.453  c85.845-85.842,204.447-138.939,335.454-138.939c131.006,0,249.609,53.098,335.453,138.939  c31.196,31.196,58.063,66.723,79.631,105.593h127.581c-29.807-70.28-72.865-133.583-126.044-186.762  C1030.086,196.85,882.785,130.895,720.09,130.895c-162.691,0-309.996,65.955-416.623,172.579  C196.843,410.099,130.889,557.405,130.889,720.096c0,96.109,23.214,189.948,67.729,274.51l0.043,0.078  C242.271,1077.483,301.563,1144.504,370.357,1195.066z" style="fill: #3498db; fill-opacity: 1;"></path></svg></g> <g transform="rotate(0 329.733431648694 290.31262773534974)"><svg y="250" viewBox="0.9399999976158142 9.710000038146973 310.5400085449219 21.40999984741211" x="155" height="40" width="400" style="overflow: visible;"><g fill="#3498db" fill-opacity="1" style=""><path d="M21.03 16.92L14.84 16.92Q14.34 16.10 13.48 15.66Q12.61 15.22 11.44 15.22L11.44 15.22Q9.27 15.22 8.02 16.63Q6.78 18.04 6.78 20.41L6.78 20.41Q6.78 23.08 8.11 24.48Q9.44 25.87 12.00 25.87L12.00 25.87Q15.02 25.87 16.31 23.14L16.31 23.14L10.53 23.14L10.53 19.01L21.26 19.01L21.26 24.58Q20.59 26.22 19.28 27.66Q17.98 29.09 15.98 30.02Q13.99 30.94 11.44 30.94L11.44 30.94Q8.33 30.94 5.94 29.61Q3.55 28.27 2.24 25.88Q0.94 23.49 0.94 20.41L0.94 20.41Q0.94 17.36 2.24 14.97Q3.55 12.58 5.92 11.25Q8.30 9.91 11.41 9.91L11.41 9.91Q15.31 9.91 17.86 11.79Q20.41 13.67 21.03 16.92L21.03 16.92ZM38.92 30.80L37.81 27.42L30.47 27.42L29.36 30.80L23.32 30.80L30.85 10.12L37.48 10.12L44.99 30.80L38.92 30.80ZM31.94 23.02L36.37 23.02L34.14 16.34L31.94 23.02ZM64.64 30.80L58.22 30.80L54.11 23.17L53.50 23.17L53.50 30.80L47.75 30.80L47.75 10.12L56.81 10.12Q59.30 10.12 61.03 10.98Q62.77 11.85 63.64 13.36Q64.52 14.87 64.52 16.75L64.52 16.75Q64.52 18.86 63.37 20.46Q62.21 22.06 59.98 22.73L59.98 22.73L64.64 30.80ZM53.50 14.93L53.50 19.24L56.34 19.24Q57.52 19.24 58.10 18.68Q58.69 18.13 58.69 17.07L58.69 17.07Q58.69 16.07 58.09 15.50Q57.49 14.93 56.34 14.93L56.34 14.93L53.50 14.93ZM82.21 30.80L81.10 27.42L73.76 27.42L72.65 30.80L66.61 30.80L74.14 10.12L80.77 10.12L88.28 30.80L82.21 30.80ZM75.23 23.02L79.66 23.02L77.43 16.34L75.23 23.02ZM110.43 16.92L104.24 16.92Q103.74 16.10 102.87 15.66Q102.01 15.22 100.83 15.22L100.83 15.22Q98.66 15.22 97.42 16.63Q96.17 18.04 96.17 20.41L96.17 20.41Q96.17 23.08 97.51 24.48Q98.84 25.87 101.39 25.87L101.39 25.87Q104.41 25.87 105.70 23.14L105.70 23.14L99.93 23.14L99.93 19.01L110.66 19.01L110.66 24.58Q109.99 26.22 108.68 27.66Q107.38 29.09 105.38 30.02Q103.39 30.94 100.83 30.94L100.83 30.94Q97.73 30.94 95.34 29.61Q92.95 28.27 91.64 25.88Q90.33 23.49 90.33 20.41L90.33 20.41Q90.33 17.36 91.64 14.97Q92.95 12.58 95.32 11.25Q97.70 9.91 100.81 9.91L100.81 9.91Q104.71 9.91 107.26 11.79Q109.81 13.67 110.43 16.92L110.43 16.92ZM127.35 14.72L119.87 14.72L119.87 18.10L126.47 18.10L126.47 22.47L119.87 22.47L119.87 26.19L127.35 26.19L127.35 30.80L114.12 30.80L114.12 10.12L127.35 10.12L127.35 14.72ZM159.79 30.80L153.30 30.80L151.63 29.21Q148.85 31.12 144.98 31.12L144.98 31.12Q142.54 31.12 140.74 30.33Q138.93 29.53 137.95 28.10Q136.97 26.66 136.97 24.78L136.97 24.78Q136.97 22.91 137.95 21.37Q138.93 19.83 140.90 18.86L140.90 18.86Q140.17 17.92 139.84 17.07Q139.52 16.22 139.52 15.25L139.52 15.25Q139.52 13.73 140.31 12.47Q141.10 11.20 142.64 10.46Q144.18 9.71 146.30 9.71L146.30 9.71Q148.44 9.71 149.93 10.49Q151.43 11.26 152.18 12.54Q152.92 13.81 152.89 15.31L152.89 15.31L147.59 15.31Q147.59 14.64 147.20 14.28Q146.82 13.93 146.27 13.93L146.27 13.93Q145.68 13.93 145.28 14.27Q144.89 14.61 144.89 15.19L144.89 15.19Q144.89 16.22 146.35 17.69L146.35 17.69L151.19 22.41Q151.46 21.88 151.75 21.15L151.75 21.15L152.34 20.09L158.03 20.09L157.18 21.73Q156.12 24.26 154.86 25.99L154.86 25.99L159.79 30.80ZM145.36 26.51Q146.91 26.51 148.11 25.84L148.11 25.84L144.04 21.94Q143.27 22.41 142.89 23.02Q142.51 23.64 142.51 24.28L142.51 24.28Q142.51 25.22 143.27 25.87Q144.04 26.51 145.36 26.51L145.36 26.51ZM188.18 16.92L181.99 16.92Q181.49 16.10 180.63 15.66Q179.76 15.22 178.59 15.22L178.59 15.22Q176.42 15.22 175.17 16.63Q173.92 18.04 173.92 20.41L173.92 20.41Q173.92 23.08 175.26 24.48Q176.59 25.87 179.14 25.87L179.14 25.87Q182.17 25.87 183.46 23.14L183.46 23.14L177.68 23.14L177.68 19.01L188.41 19.01L188.41 24.58Q187.74 26.22 186.43 27.66Q185.13 29.09 183.13 30.02Q181.14 30.94 178.59 30.94L178.59 30.94Q175.48 30.94 173.09 29.61Q170.70 28.27 169.39 25.88Q168.09 23.49 168.09 20.41L168.09 20.41Q168.09 17.36 169.39 14.97Q170.70 12.58 173.07 11.25Q175.45 9.91 178.56 9.91L178.56 9.91Q182.46 9.91 185.01 11.79Q187.56 13.67 188.18 16.92L188.18 16.92ZM206.07 30.80L204.95 27.42L197.62 27.42L196.51 30.80L190.47 30.80L198.00 10.12L204.63 10.12L212.14 30.80L206.07 30.80ZM199.09 23.02L203.52 23.02L201.29 16.34L199.09 23.02ZM223.08 10.12Q226.34 10.12 228.78 11.42Q231.23 12.73 232.55 15.08Q233.87 17.42 233.87 20.44L233.87 20.44Q233.87 23.43 232.54 25.78Q231.20 28.13 228.75 29.46Q226.31 30.80 223.08 30.80L223.08 30.80L214.90 30.80L214.90 10.12L223.08 10.12ZM222.64 25.72Q225.16 25.72 226.60 24.34Q228.04 22.96 228.04 20.44L228.04 20.44Q228.04 17.89 226.60 16.50Q225.16 15.10 222.64 15.10L222.64 15.10L220.65 15.10L220.65 25.72L222.64 25.72ZM256.72 16.92L250.53 16.92Q250.03 16.10 249.17 15.66Q248.30 15.22 247.13 15.22L247.13 15.22Q244.96 15.22 243.71 16.63Q242.47 18.04 242.47 20.41L242.47 20.41Q242.47 23.08 243.80 24.48Q245.14 25.87 247.69 25.87L247.69 25.87Q250.71 25.87 252.00 23.14L252.00 23.14L246.22 23.14L246.22 19.01L256.96 19.01L256.96 24.58Q256.28 26.22 254.98 27.66Q253.67 29.09 251.68 30.02Q249.68 30.94 247.13 30.94L247.13 30.94Q244.02 30.94 241.63 29.61Q239.24 28.27 237.94 25.88Q236.63 23.49 236.63 20.41L236.63 20.41Q236.63 17.36 237.94 14.97Q239.24 12.58 241.62 11.25Q243.99 9.91 247.10 9.91L247.10 9.91Q251.00 9.91 253.55 11.79Q256.10 13.67 256.72 16.92L256.72 16.92ZM273.64 14.72L266.16 14.72L266.16 18.10L272.76 18.10L272.76 22.47L266.16 22.47L266.16 26.19L273.64 26.19L273.64 30.80L260.42 30.80L260.42 10.12L273.64 10.12L273.64 14.72ZM276.22 10.12L292.94 10.12L292.94 14.69L287.43 14.69L287.43 30.80L281.68 30.80L281.68 14.69L276.22 14.69L276.22 10.12ZM303.77 31.00Q300.16 31.00 297.84 29.29Q295.52 27.57 295.35 24.37L295.35 24.37L301.48 24.37Q301.57 25.46 302.12 25.96Q302.68 26.46 303.56 26.46L303.56 26.46Q304.35 26.46 304.86 26.06Q305.38 25.66 305.38 24.96L305.38 24.96Q305.38 24.05 304.53 23.55Q303.68 23.05 301.77 22.44L301.77 22.44Q299.75 21.76 298.50 21.13Q297.25 20.50 296.33 19.28Q295.41 18.07 295.41 16.10L295.41 16.10Q295.41 14.11 296.40 12.68Q297.40 11.26 299.16 10.53Q300.92 9.80 303.15 9.80L303.15 9.80Q306.76 9.80 308.91 11.48Q311.07 13.17 311.21 16.22L311.21 16.22L304.97 16.22Q304.94 15.28 304.40 14.81Q303.85 14.34 303.00 14.34L303.00 14.34Q302.36 14.34 301.95 14.72Q301.54 15.10 301.54 15.81L301.54 15.81Q301.54 16.40 301.99 16.82Q302.45 17.25 303.12 17.55Q303.79 17.86 305.11 18.33L305.11 18.33Q307.08 19.01 308.36 19.67Q309.63 20.33 310.55 21.51Q311.48 22.70 311.48 24.52L311.48 24.52Q311.48 26.37 310.55 27.83Q309.63 29.30 307.89 30.15Q306.14 31.00 303.77 31.00L303.77 31.00Z" transform="translate(0, 0)"></path></g></svg></g></svg>
